<?xml version="1.0" encoding="utf-8"?>
<svg xmlns="http://www.w3.org/2000/svg" xmlns:xlink="http://www.w3.org/1999/xlink" width="600" height="400" viewBox="0 0 2400 1600">
<defs>
  <clipPath id="clip620">
    <rect x="0" y="0" width="2400" height="1600"/>
  </clipPath>
</defs>
<path clip-path="url(#clip620)" d="
M0 1600 L2400 1600 L2400 0 L0 0  Z
  " fill="#ffffff" fill-rule="evenodd" fill-opacity="1"/>
<defs>
  <clipPath id="clip621">
    <rect x="480" y="0" width="1681" height="1600"/>
  </clipPath>
</defs>
<path clip-path="url(#clip620)" d="
M219.38 1423.18 L2352.76 1423.18 L2352.76 47.2441 L219.38 47.2441  Z
  " fill="#ffffff" fill-rule="evenodd" fill-opacity="1"/>
<defs>
  <clipPath id="clip622">
    <rect x="219" y="47" width="2134" height="1377"/>
  </clipPath>
</defs>
<polyline clip-path="url(#clip622)" style="stroke:#000000; stroke-linecap:butt; stroke-linejoin:round; stroke-width:2; stroke-opacity:0.1; fill:none" points="
  270.817,1423.18 270.817,47.2441 
  "/>
<polyline clip-path="url(#clip622)" style="stroke:#000000; stroke-linecap:butt; stroke-linejoin:round; stroke-width:2; stroke-opacity:0.1; fill:none" points="
  821.588,1423.18 821.588,47.2441 
  "/>
<polyline clip-path="url(#clip622)" style="stroke:#000000; stroke-linecap:butt; stroke-linejoin:round; stroke-width:2; stroke-opacity:0.1; fill:none" points="
  1372.36,1423.18 1372.36,47.2441 
  "/>
<polyline clip-path="url(#clip622)" style="stroke:#000000; stroke-linecap:butt; stroke-linejoin:round; stroke-width:2; stroke-opacity:0.1; fill:none" points="
  1923.13,1423.18 1923.13,47.2441 
  "/>
<polyline clip-path="url(#clip620)" style="stroke:#000000; stroke-linecap:butt; stroke-linejoin:round; stroke-width:4; stroke-opacity:1; fill:none" points="
  219.38,1423.18 2352.76,1423.18 
  "/>
<polyline clip-path="url(#clip620)" style="stroke:#000000; stroke-linecap:butt; stroke-linejoin:round; stroke-width:4; stroke-opacity:1; fill:none" points="
  270.817,1423.18 270.817,1406.67 
  "/>
<polyline clip-path="url(#clip620)" style="stroke:#000000; stroke-linecap:butt; stroke-linejoin:round; stroke-width:4; stroke-opacity:1; fill:none" points="
  821.588,1423.18 821.588,1406.67 
  "/>
<polyline clip-path="url(#clip620)" style="stroke:#000000; stroke-linecap:butt; stroke-linejoin:round; stroke-width:4; stroke-opacity:1; fill:none" points="
  1372.36,1423.18 1372.36,1406.67 
  "/>
<polyline clip-path="url(#clip620)" style="stroke:#000000; stroke-linecap:butt; stroke-linejoin:round; stroke-width:4; stroke-opacity:1; fill:none" points="
  1923.13,1423.18 1923.13,1406.67 
  "/>
<path clip-path="url(#clip620)" d="M239.718 1467.02 L269.394 1467.02 L269.394 1470.96 L239.718 1470.96 L239.718 1467.02 Z" fill="#000000" fill-rule="evenodd" fill-opacity="1" /><path clip-path="url(#clip620)" d="M292.333 1453.37 L280.528 1471.81 L292.333 1471.81 L292.333 1453.37 M291.106 1449.29 L296.986 1449.29 L296.986 1471.81 L301.917 1471.81 L301.917 1475.7 L296.986 1475.7 L296.986 1483.85 L292.333 1483.85 L292.333 1475.7 L276.731 1475.7 L276.731 1471.19 L291.106 1449.29 Z" fill="#000000" fill-rule="evenodd" fill-opacity="1" /><path clip-path="url(#clip620)" d="M791.531 1467.02 L821.206 1467.02 L821.206 1470.96 L791.531 1470.96 L791.531 1467.02 Z" fill="#000000" fill-rule="evenodd" fill-opacity="1" /><path clip-path="url(#clip620)" d="M835.327 1479.92 L851.646 1479.92 L851.646 1483.85 L829.702 1483.85 L829.702 1479.92 Q832.364 1477.16 836.947 1472.53 Q841.554 1467.88 842.734 1466.54 Q844.98 1464.01 845.859 1462.28 Q846.762 1460.52 846.762 1458.83 Q846.762 1456.07 844.817 1454.34 Q842.896 1452.6 839.794 1452.6 Q837.595 1452.6 835.142 1453.37 Q832.711 1454.13 829.933 1455.68 L829.933 1450.96 Q832.757 1449.82 835.211 1449.25 Q837.665 1448.67 839.702 1448.67 Q845.072 1448.67 848.267 1451.35 Q851.461 1454.04 851.461 1458.53 Q851.461 1460.66 850.651 1462.58 Q849.864 1464.48 847.757 1467.07 Q847.179 1467.74 844.077 1470.96 Q840.975 1474.15 835.327 1479.92 Z" fill="#000000" fill-rule="evenodd" fill-opacity="1" /><path clip-path="url(#clip620)" d="M1372.36 1452.37 Q1368.75 1452.37 1366.92 1455.94 Q1365.11 1459.48 1365.11 1466.61 Q1365.11 1473.71 1366.92 1477.28 Q1368.75 1480.82 1372.36 1480.82 Q1375.99 1480.82 1377.8 1477.28 Q1379.63 1473.71 1379.63 1466.61 Q1379.63 1459.48 1377.8 1455.94 Q1375.99 1452.37 1372.36 1452.37 M1372.36 1448.67 Q1378.17 1448.67 1381.23 1453.27 Q1384.3 1457.86 1384.3 1466.61 Q1384.3 1475.33 1381.23 1479.94 Q1378.17 1484.52 1372.36 1484.52 Q1366.55 1484.52 1363.47 1479.94 Q1360.42 1475.33 1360.42 1466.61 Q1360.42 1457.86 1363.47 1453.27 Q1366.55 1448.67 1372.36 1448.67 Z" fill="#000000" fill-rule="evenodd" fill-opacity="1" /><path clip-path="url(#clip620)" d="M1917.78 1479.92 L1934.1 1479.92 L1934.1 1483.85 L1912.16 1483.85 L1912.16 1479.92 Q1914.82 1477.16 1919.4 1472.53 Q1924.01 1467.88 1925.19 1466.54 Q1927.44 1464.01 1928.32 1462.28 Q1929.22 1460.52 1929.22 1458.83 Q1929.22 1456.07 1927.27 1454.34 Q1925.35 1452.6 1922.25 1452.6 Q1920.05 1452.6 1917.6 1453.37 Q1915.17 1454.13 1912.39 1455.68 L1912.39 1450.96 Q1915.21 1449.82 1917.67 1449.25 Q1920.12 1448.67 1922.16 1448.67 Q1927.53 1448.67 1930.72 1451.35 Q1933.92 1454.04 1933.92 1458.53 Q1933.92 1460.66 1933.11 1462.58 Q1932.32 1464.48 1930.21 1467.07 Q1929.64 1467.74 1926.53 1470.96 Q1923.43 1474.15 1917.78 1479.92 Z" fill="#000000" fill-rule="evenodd" fill-opacity="1" /><path clip-path="url(#clip620)" d="M1225.85 1532.4 L1212.96 1549.74 L1226.52 1568.04 L1219.61 1568.04 L1209.23 1554.04 L1198.86 1568.04 L1191.95 1568.04 L1205.8 1549.39 L1193.13 1532.4 L1200.04 1532.4 L1209.49 1545.1 L1218.94 1532.4 L1225.85 1532.4 Z" fill="#000000" fill-rule="evenodd" fill-opacity="1" /><path clip-path="url(#clip620)" d="M1234.79 1518.52 L1240.65 1518.52 L1240.65 1568.04 L1234.79 1568.04 L1234.79 1518.52 Z" fill="#000000" fill-rule="evenodd" fill-opacity="1" /><path clip-path="url(#clip620)" d="M1269.1 1550.12 Q1262.01 1550.12 1259.27 1551.75 Q1256.53 1553.37 1256.53 1557.29 Q1256.53 1560.4 1258.57 1562.25 Q1260.64 1564.07 1264.17 1564.07 Q1269.04 1564.07 1271.97 1560.63 Q1274.93 1557.16 1274.93 1551.43 L1274.93 1550.12 L1269.1 1550.12 M1280.78 1547.71 L1280.78 1568.04 L1274.93 1568.04 L1274.93 1562.63 Q1272.92 1565.88 1269.93 1567.44 Q1266.94 1568.97 1262.61 1568.97 Q1257.14 1568.97 1253.89 1565.91 Q1250.67 1562.82 1250.67 1557.67 Q1250.67 1551.65 1254.69 1548.6 Q1258.73 1545.54 1266.72 1545.54 L1274.93 1545.54 L1274.93 1544.97 Q1274.93 1540.93 1272.25 1538.73 Q1269.61 1536.5 1264.81 1536.5 Q1261.75 1536.5 1258.85 1537.23 Q1255.96 1537.97 1253.28 1539.43 L1253.28 1534.02 Q1256.5 1532.78 1259.52 1532.17 Q1262.55 1531.54 1265.41 1531.54 Q1273.15 1531.54 1276.97 1535.55 Q1280.78 1539.56 1280.78 1547.71 Z" fill="#000000" fill-rule="evenodd" fill-opacity="1" /><path clip-path="url(#clip620)" d="M1318.44 1550.25 Q1318.44 1543.79 1315.76 1540.13 Q1313.12 1536.44 1308.48 1536.44 Q1303.83 1536.44 1301.15 1540.13 Q1298.51 1543.79 1298.51 1550.25 Q1298.51 1556.71 1301.15 1560.4 Q1303.83 1564.07 1308.48 1564.07 Q1313.12 1564.07 1315.76 1560.4 Q1318.44 1556.71 1318.44 1550.25 M1298.51 1537.81 Q1300.36 1534.62 1303.16 1533.1 Q1305.99 1531.54 1309.91 1531.54 Q1316.4 1531.54 1320.44 1536.69 Q1324.52 1541.85 1324.52 1550.25 Q1324.52 1558.65 1320.44 1563.81 Q1316.4 1568.97 1309.91 1568.97 Q1305.99 1568.97 1303.16 1567.44 Q1300.36 1565.88 1298.51 1562.7 L1298.51 1568.04 L1292.62 1568.04 L1292.62 1518.52 L1298.51 1518.52 L1298.51 1537.81 Z" fill="#000000" fill-rule="evenodd" fill-opacity="1" /><path clip-path="url(#clip620)" d="M1364.72 1548.76 L1364.72 1551.62 L1337.79 1551.62 Q1338.17 1557.67 1341.42 1560.85 Q1344.7 1564 1350.52 1564 Q1353.89 1564 1357.05 1563.17 Q1360.23 1562.35 1363.35 1560.69 L1363.35 1566.23 Q1360.2 1567.57 1356.89 1568.27 Q1353.58 1568.97 1350.17 1568.97 Q1341.64 1568.97 1336.64 1564 Q1331.68 1559.04 1331.68 1550.57 Q1331.68 1541.82 1336.39 1536.69 Q1341.13 1531.54 1349.15 1531.54 Q1356.35 1531.54 1360.51 1536.18 Q1364.72 1540.8 1364.72 1548.76 M1358.86 1547.04 Q1358.8 1542.23 1356.15 1539.37 Q1353.54 1536.5 1349.22 1536.5 Q1344.31 1536.5 1341.35 1539.27 Q1338.43 1542.04 1337.98 1547.07 L1358.86 1547.04 Z" fill="#000000" fill-rule="evenodd" fill-opacity="1" /><path clip-path="url(#clip620)" d="M1374.33 1518.52 L1380.19 1518.52 L1380.19 1568.04 L1374.33 1568.04 L1374.33 1518.52 Z" fill="#000000" fill-rule="evenodd" fill-opacity="1" /><polyline clip-path="url(#clip622)" style="stroke:#000000; stroke-linecap:butt; stroke-linejoin:round; stroke-width:2; stroke-opacity:0.1; fill:none" points="
  219.38,1384.31 2352.76,1384.31 
  "/>
<polyline clip-path="url(#clip622)" style="stroke:#000000; stroke-linecap:butt; stroke-linejoin:round; stroke-width:2; stroke-opacity:0.1; fill:none" points="
  219.38,1034.39 2352.76,1034.39 
  "/>
<polyline clip-path="url(#clip622)" style="stroke:#000000; stroke-linecap:butt; stroke-linejoin:round; stroke-width:2; stroke-opacity:0.1; fill:none" points="
  219.38,684.463 2352.76,684.463 
  "/>
<polyline clip-path="url(#clip622)" style="stroke:#000000; stroke-linecap:butt; stroke-linejoin:round; stroke-width:2; stroke-opacity:0.1; fill:none" points="
  219.38,334.538 2352.76,334.538 
  "/>
<polyline clip-path="url(#clip620)" style="stroke:#000000; stroke-linecap:butt; stroke-linejoin:round; stroke-width:4; stroke-opacity:1; fill:none" points="
  219.38,1423.18 219.38,47.2441 
  "/>
<polyline clip-path="url(#clip620)" style="stroke:#000000; stroke-linecap:butt; stroke-linejoin:round; stroke-width:4; stroke-opacity:1; fill:none" points="
  219.38,1384.31 244.981,1384.31 
  "/>
<polyline clip-path="url(#clip620)" style="stroke:#000000; stroke-linecap:butt; stroke-linejoin:round; stroke-width:4; stroke-opacity:1; fill:none" points="
  219.38,1034.39 244.981,1034.39 
  "/>
<polyline clip-path="url(#clip620)" style="stroke:#000000; stroke-linecap:butt; stroke-linejoin:round; stroke-width:4; stroke-opacity:1; fill:none" points="
  219.38,684.463 244.981,684.463 
  "/>
<polyline clip-path="url(#clip620)" style="stroke:#000000; stroke-linecap:butt; stroke-linejoin:round; stroke-width:4; stroke-opacity:1; fill:none" points="
  219.38,334.538 244.981,334.538 
  "/>
<path clip-path="url(#clip620)" d="M126.205 1370.11 Q122.593 1370.11 120.765 1373.68 Q118.959 1377.22 118.959 1384.35 Q118.959 1391.45 120.765 1395.02 Q122.593 1398.56 126.205 1398.56 Q129.839 1398.56 131.644 1395.02 Q133.473 1391.45 133.473 1384.35 Q133.473 1377.22 131.644 1373.68 Q129.839 1370.11 126.205 1370.11 M126.205 1366.41 Q132.015 1366.41 135.07 1371.01 Q138.149 1375.6 138.149 1384.35 Q138.149 1393.07 135.07 1397.68 Q132.015 1402.26 126.205 1402.26 Q120.394 1402.26 117.316 1397.68 Q114.26 1393.07 114.26 1384.35 Q114.26 1375.6 117.316 1371.01 Q120.394 1366.41 126.205 1366.41 Z" fill="#000000" fill-rule="evenodd" fill-opacity="1" /><path clip-path="url(#clip620)" d="M146.366 1395.71 L151.251 1395.71 L151.251 1401.59 L146.366 1401.59 L146.366 1395.71 Z" fill="#000000" fill-rule="evenodd" fill-opacity="1" /><path clip-path="url(#clip620)" d="M171.436 1370.11 Q167.825 1370.11 165.996 1373.68 Q164.19 1377.22 164.19 1384.35 Q164.19 1391.45 165.996 1395.02 Q167.825 1398.56 171.436 1398.56 Q175.07 1398.56 176.876 1395.02 Q178.704 1391.45 178.704 1384.35 Q178.704 1377.22 176.876 1373.68 Q175.07 1370.11 171.436 1370.11 M171.436 1366.41 Q177.246 1366.41 180.301 1371.01 Q183.38 1375.6 183.38 1384.35 Q183.38 1393.07 180.301 1397.68 Q177.246 1402.26 171.436 1402.26 Q165.626 1402.26 162.547 1397.68 Q159.491 1393.07 159.491 1384.35 Q159.491 1375.6 162.547 1371.01 Q165.626 1366.41 171.436 1366.41 Z" fill="#000000" fill-rule="evenodd" fill-opacity="1" /><path clip-path="url(#clip620)" d="M127.431 1020.19 Q123.82 1020.19 121.992 1023.75 Q120.186 1027.29 120.186 1034.42 Q120.186 1041.53 121.992 1045.09 Q123.82 1048.63 127.431 1048.63 Q131.066 1048.63 132.871 1045.09 Q134.7 1041.53 134.7 1034.42 Q134.7 1027.29 132.871 1023.75 Q131.066 1020.19 127.431 1020.19 M127.431 1016.48 Q133.242 1016.48 136.297 1021.09 Q139.376 1025.67 139.376 1034.42 Q139.376 1043.15 136.297 1047.76 Q133.242 1052.34 127.431 1052.34 Q121.621 1052.34 118.543 1047.76 Q115.487 1043.15 115.487 1034.42 Q115.487 1025.67 118.543 1021.09 Q121.621 1016.48 127.431 1016.48 Z" fill="#000000" fill-rule="evenodd" fill-opacity="1" /><path clip-path="url(#clip620)" d="M147.593 1045.79 L152.478 1045.79 L152.478 1051.67 L147.593 1051.67 L147.593 1045.79 Z" fill="#000000" fill-rule="evenodd" fill-opacity="1" /><path clip-path="url(#clip620)" d="M163.473 1047.73 L171.112 1047.73 L171.112 1021.37 L162.802 1023.03 L162.802 1018.77 L171.065 1017.11 L175.741 1017.11 L175.741 1047.73 L183.38 1047.73 L183.38 1051.67 L163.473 1051.67 L163.473 1047.73 Z" fill="#000000" fill-rule="evenodd" fill-opacity="1" /><path clip-path="url(#clip620)" d="M127.802 670.261 Q124.191 670.261 122.362 673.826 Q120.556 677.368 120.556 684.497 Q120.556 691.604 122.362 695.169 Q124.191 698.71 127.802 698.71 Q131.436 698.71 133.242 695.169 Q135.07 691.604 135.07 684.497 Q135.07 677.368 133.242 673.826 Q131.436 670.261 127.802 670.261 M127.802 666.558 Q133.612 666.558 136.667 671.164 Q139.746 675.747 139.746 684.497 Q139.746 693.224 136.667 697.831 Q133.612 702.414 127.802 702.414 Q121.992 702.414 118.913 697.831 Q115.857 693.224 115.857 684.497 Q115.857 675.747 118.913 671.164 Q121.992 666.558 127.802 666.558 Z" fill="#000000" fill-rule="evenodd" fill-opacity="1" /><path clip-path="url(#clip620)" d="M147.964 695.863 L152.848 695.863 L152.848 701.743 L147.964 701.743 L147.964 695.863 Z" fill="#000000" fill-rule="evenodd" fill-opacity="1" /><path clip-path="url(#clip620)" d="M167.061 697.808 L183.38 697.808 L183.38 701.743 L161.436 701.743 L161.436 697.808 Q164.098 695.053 168.681 690.423 Q173.288 685.771 174.468 684.428 Q176.714 681.905 177.593 680.169 Q178.496 678.409 178.496 676.72 Q178.496 673.965 176.551 672.229 Q174.63 670.493 171.528 670.493 Q169.329 670.493 166.876 671.257 Q164.445 672.021 161.667 673.572 L161.667 668.849 Q164.491 667.715 166.945 667.136 Q169.399 666.558 171.436 666.558 Q176.806 666.558 180.001 669.243 Q183.195 671.928 183.195 676.419 Q183.195 678.548 182.385 680.47 Q181.598 682.368 179.491 684.96 Q178.913 685.632 175.811 688.849 Q172.709 692.044 167.061 697.808 Z" fill="#000000" fill-rule="evenodd" fill-opacity="1" /><path clip-path="url(#clip620)" d="M126.853 320.337 Q123.242 320.337 121.413 323.902 Q119.607 327.443 119.607 334.573 Q119.607 341.679 121.413 345.244 Q123.242 348.786 126.853 348.786 Q130.487 348.786 132.292 345.244 Q134.121 341.679 134.121 334.573 Q134.121 327.443 132.292 323.902 Q130.487 320.337 126.853 320.337 M126.853 316.633 Q132.663 316.633 135.718 321.24 Q138.797 325.823 138.797 334.573 Q138.797 343.3 135.718 347.906 Q132.663 352.489 126.853 352.489 Q121.043 352.489 117.964 347.906 Q114.908 343.3 114.908 334.573 Q114.908 325.823 117.964 321.24 Q121.043 316.633 126.853 316.633 Z" fill="#000000" fill-rule="evenodd" fill-opacity="1" /><path clip-path="url(#clip620)" d="M147.015 345.938 L151.899 345.938 L151.899 351.818 L147.015 351.818 L147.015 345.938 Z" fill="#000000" fill-rule="evenodd" fill-opacity="1" /><path clip-path="url(#clip620)" d="M176.251 333.184 Q179.607 333.901 181.482 336.17 Q183.38 338.439 183.38 341.772 Q183.38 346.888 179.862 349.688 Q176.343 352.489 169.862 352.489 Q167.686 352.489 165.371 352.05 Q163.079 351.633 160.626 350.776 L160.626 346.263 Q162.57 347.397 164.885 347.975 Q167.2 348.554 169.723 348.554 Q174.121 348.554 176.413 346.818 Q178.727 345.082 178.727 341.772 Q178.727 338.716 176.575 337.003 Q174.445 335.267 170.626 335.267 L166.598 335.267 L166.598 331.425 L170.811 331.425 Q174.26 331.425 176.089 330.059 Q177.917 328.67 177.917 326.077 Q177.917 323.415 176.019 322.003 Q174.144 320.568 170.626 320.568 Q168.704 320.568 166.505 320.985 Q164.306 321.402 161.667 322.281 L161.667 318.115 Q164.329 317.374 166.644 317.003 Q168.982 316.633 171.042 316.633 Q176.366 316.633 179.468 319.064 Q182.57 321.471 182.57 325.591 Q182.57 328.462 180.926 330.452 Q179.283 332.42 176.251 333.184 Z" fill="#000000" fill-rule="evenodd" fill-opacity="1" /><path clip-path="url(#clip620)" d="M67.3143 810.264 Q73.68 812.746 75.6216 815.102 Q77.5631 817.457 77.5631 821.404 L77.5631 826.082 L72.6615 826.082 L72.6615 822.645 Q72.6615 820.226 71.5157 818.889 Q70.3699 817.552 66.1048 815.929 L63.4312 814.879 L28.3562 829.297 L28.3562 823.091 L56.238 811.951 L28.3562 800.811 L28.3562 794.604 L67.3143 810.264 Z" fill="#000000" fill-rule="evenodd" fill-opacity="1" /><path clip-path="url(#clip620)" d="M14.479 786.52 L14.479 780.663 L64.0042 780.663 L64.0042 786.52 L14.479 786.52 Z" fill="#000000" fill-rule="evenodd" fill-opacity="1" /><path clip-path="url(#clip620)" d="M46.0847 752.208 Q46.0847 759.306 47.7079 762.043 Q49.3312 764.781 53.2461 764.781 Q56.3653 764.781 58.2114 762.744 Q60.0256 760.675 60.0256 757.142 Q60.0256 752.272 56.5881 749.344 Q53.1188 746.384 47.3897 746.384 L46.0847 746.384 L46.0847 752.208 M43.6657 740.527 L64.0042 740.527 L64.0042 746.384 L58.5933 746.384 Q61.8398 748.389 63.3994 751.381 Q64.9272 754.373 64.9272 758.701 Q64.9272 764.176 61.8716 767.422 Q58.7843 770.637 53.6281 770.637 Q47.6125 770.637 44.5569 766.627 Q41.5014 762.585 41.5014 754.596 L41.5014 746.384 L40.9285 746.384 Q36.8862 746.384 34.6901 749.057 Q32.4621 751.699 32.4621 756.505 Q32.4621 759.561 33.1941 762.457 Q33.9262 765.354 35.3903 768.027 L29.9795 768.027 Q28.7381 764.813 28.1334 761.789 Q27.4968 758.765 27.4968 755.901 Q27.4968 748.166 31.5072 744.347 Q35.5176 740.527 43.6657 740.527 Z" fill="#000000" fill-rule="evenodd" fill-opacity="1" /><path clip-path="url(#clip620)" d="M46.212 702.874 Q39.7508 702.874 36.0905 705.548 Q32.3984 708.19 32.3984 712.837 Q32.3984 717.483 36.0905 720.157 Q39.7508 722.799 46.212 722.799 Q52.6732 722.799 56.3653 720.157 Q60.0256 717.483 60.0256 712.837 Q60.0256 708.19 56.3653 705.548 Q52.6732 702.874 46.212 702.874 M33.7671 722.799 Q30.5842 720.953 29.0564 718.152 Q27.4968 715.319 27.4968 711.404 Q27.4968 704.911 32.6531 700.869 Q37.8093 696.795 46.212 696.795 Q54.6147 696.795 59.771 700.869 Q64.9272 704.911 64.9272 711.404 Q64.9272 715.319 63.3994 718.152 Q61.8398 720.953 58.657 722.799 L64.0042 722.799 L64.0042 728.687 L14.479 728.687 L14.479 722.799 L33.7671 722.799 Z" fill="#000000" fill-rule="evenodd" fill-opacity="1" /><path clip-path="url(#clip620)" d="M44.7161 656.595 L47.5806 656.595 L47.5806 683.522 Q53.6281 683.14 56.8109 679.894 Q59.9619 676.616 59.9619 670.791 Q59.9619 667.417 59.1344 664.266 Q58.3069 661.083 56.6518 657.964 L62.1899 657.964 Q63.5267 661.115 64.227 664.425 Q64.9272 667.735 64.9272 671.141 Q64.9272 679.671 59.9619 684.668 Q54.9967 689.634 46.5303 689.634 Q37.7774 689.634 32.6531 684.923 Q27.4968 680.18 27.4968 672.16 Q27.4968 664.966 32.1438 660.797 Q36.7589 656.595 44.7161 656.595 M42.9973 662.452 Q38.1912 662.516 35.3266 665.157 Q32.4621 667.767 32.4621 672.096 Q32.4621 676.998 35.2312 679.958 Q38.0002 682.886 43.0292 683.331 L42.9973 662.452 Z" fill="#000000" fill-rule="evenodd" fill-opacity="1" /><path clip-path="url(#clip620)" d="M14.479 646.983 L14.479 641.127 L64.0042 641.127 L64.0042 646.983 L14.479 646.983 Z" fill="#000000" fill-rule="evenodd" fill-opacity="1" /><polyline clip-path="url(#clip622)" style="stroke:#009af9; stroke-linecap:butt; stroke-linejoin:round; stroke-width:4; stroke-opacity:1; fill:none" points="
  279.759,1384.24 289.872,1384.23 299.986,1384.21 310.1,1384.18 320.213,1384.13 330.327,1384.06 340.441,1383.97 350.554,1383.84 360.668,1383.67 370.782,1383.44 
  380.895,1383.14 391.009,1382.76 401.123,1382.26 411.236,1381.63 421.35,1380.84 431.464,1379.84 441.577,1378.62 451.691,1377.13 461.805,1375.32 471.918,1373.15 
  482.032,1370.58 492.146,1367.56 502.259,1364.06 512.373,1360.03 522.487,1355.46 532.6,1350.31 542.714,1344.58 552.828,1338.29 562.941,1331.44 573.055,1324.07 
  583.169,1316.24 593.282,1308.01 603.396,1299.47 613.51,1290.71 623.623,1281.83 633.737,1272.94 643.851,1264.13 653.964,1255.51 664.078,1247.16 674.192,1239.13 
  684.305,1231.48 694.419,1224.2 704.532,1217.29 714.646,1210.68 724.76,1204.29 734.873,1198.02 744.987,1191.71 755.101,1185.21 765.214,1178.35 775.328,1170.95 
  785.442,1162.83 795.555,1153.83 805.669,1143.8 815.783,1132.64 825.896,1120.24 836.01,1106.55 846.124,1091.55 856.237,1075.24 866.351,1057.66 876.465,1038.87 
  886.578,1018.95 896.692,997.967 906.806,976.013 916.919,953.163 927.033,929.48 937.147,905.013 947.26,879.79 957.374,853.823 967.488,827.108 977.601,799.631 
  987.715,771.371 997.829,742.311 1007.94,712.445 1018.06,681.786 1028.17,650.371 1038.28,618.271 1048.4,585.589 1058.51,552.466 1068.62,519.076 1078.74,485.626 
  1088.85,452.346 1098.97,419.484 1109.08,387.294 1119.19,356.03 1129.31,325.931 1139.42,297.217 1149.53,270.079 1159.65,244.673 1169.76,221.116 1179.87,199.489 
  1189.99,179.833 1200.1,162.156 1210.22,146.44 1220.33,132.646 1230.44,120.723 1240.56,110.617 1250.67,102.279 1260.78,95.6726 1270.9,90.7801 1281.01,87.6074 
  1291.12,86.1857 1301.24,86.5719 1311.35,88.8469 1321.47,93.1112 1331.58,99.4792 1341.69,108.071 1351.81,119.005 1361.92,132.385 1372.03,148.295 1382.15,166.783 
  1392.26,187.856 1402.38,211.47 1412.49,237.522 1422.6,265.845 1432.72,296.202 1442.83,328.292 1452.94,361.744 1463.06,396.13 1473.17,430.966 1483.28,465.729 
  1493.4,499.867 1503.51,532.818 1513.63,564.027 1523.74,592.966 1533.85,619.152 1543.97,642.167 1554.08,661.679 1564.19,677.448 1574.31,689.349 1584.42,697.37 
  1594.53,701.623 1604.65,702.335 1614.76,699.849 1624.88,694.606 1634.99,687.136 1645.1,678.033 1655.22,667.94 1665.33,657.52 1675.44,647.439 1685.56,638.336 
  1695.67,630.811 1705.78,625.397 1715.9,622.554 1726.01,622.651 1736.13,625.964 1746.24,632.668 1756.35,642.843 1766.47,656.473 1776.58,673.457 1786.69,693.616 
  1796.81,716.707 1806.92,742.43 1817.04,770.446 1827.15,800.385 1837.26,831.861 1847.38,864.479 1857.49,897.847 1867.6,931.586 1877.72,965.331 1887.83,998.744 
  1897.94,1031.52 1908.06,1063.37 1918.17,1094.05 1928.29,1123.37 1938.4,1151.14 1948.51,1177.24 1958.63,1201.57 1968.74,1224.07 1978.85,1244.71 1988.97,1263.49 
  1999.08,1280.45 2009.19,1295.64 2019.31,1309.12 2029.42,1321.01 2039.54,1331.39 2049.65,1340.4 2059.76,1348.13 2069.88,1354.73 2079.99,1360.3 2090.1,1364.97 
  2100.22,1368.85 2110.33,1372.05 2120.45,1374.66 2130.56,1376.78 2140.67,1378.48 2150.79,1379.83 2160.9,1380.89 2171.01,1381.73 2181.13,1382.37 2191.24,1382.87 
  2201.35,1383.25 2211.47,1383.53 2221.58,1383.75 2231.7,1383.9 2241.81,1384.02 2251.92,1384.1 2262.04,1384.16 2272.15,1384.2 2282.26,1384.22 2292.38,1384.24 
  
  "/>
<path clip-path="url(#clip620)" d="
M1992.17 196.789 L2281.64 196.789 L2281.64 93.1086 L1992.17 93.1086  Z
  " fill="#ffffff" fill-rule="evenodd" fill-opacity="1"/>
<polyline clip-path="url(#clip620)" style="stroke:#000000; stroke-linecap:butt; stroke-linejoin:round; stroke-width:4; stroke-opacity:1; fill:none" points="
  1992.17,196.789 2281.64,196.789 2281.64,93.1086 1992.17,93.1086 1992.17,196.789 
  "/>
<polyline clip-path="url(#clip620)" style="stroke:#009af9; stroke-linecap:butt; stroke-linejoin:round; stroke-width:4; stroke-opacity:1; fill:none" points="
  2015.88,144.949 2158.1,144.949 
  "/>
<path clip-path="url(#clip620)" d="M2195.65 164.636 Q2193.84 169.266 2192.13 170.678 Q2190.42 172.09 2187.55 172.09 L2184.14 172.09 L2184.14 168.525 L2186.64 168.525 Q2188.4 168.525 2189.37 167.692 Q2190.35 166.858 2191.53 163.756 L2192.29 161.812 L2181.8 136.303 L2186.32 136.303 L2194.42 156.581 L2202.52 136.303 L2207.04 136.303 L2195.65 164.636 Z" fill="#000000" fill-rule="evenodd" fill-opacity="1" /><path clip-path="url(#clip620)" d="M2214.33 158.293 L2221.97 158.293 L2221.97 131.928 L2213.66 133.595 L2213.66 129.335 L2221.92 127.669 L2226.6 127.669 L2226.6 158.293 L2234.24 158.293 L2234.24 162.229 L2214.33 162.229 L2214.33 158.293 Z" fill="#000000" fill-rule="evenodd" fill-opacity="1" /></svg>
